<?xml version="1.0" standalone="no"?>
<!DOCTYPE svg PUBLIC "-//W3C//DTD SVG 20010904//EN"
 "http://www.w3.org/TR/2001/REC-SVG-20010904/DTD/svg10.dtd">
<svg version="1.0" xmlns="http://www.w3.org/2000/svg"
 width="119.000000pt" height="113.000000pt" viewBox="0 0 119.000000 113.000000"
 preserveAspectRatio="xMidYMid meet">

<g transform="translate(0.000000,113.000000) scale(0.100000,-0.100000)"
fill="#000000" stroke="none">
<path d="M549 893 c0 -99 -3 -141 -9 -125 -8 18 -17 22 -50 22 -33 0 -40 -3
-40 -20 0 -15 -7 -20 -25 -20 -18 0 -25 5 -25 20 0 17 -7 20 -41 20 l-41 0 6
-37 c3 -21 9 -91 12 -155 l7 -118 -27 0 c-16 0 -26 -5 -26 -15 0 -8 -9 -15
-20 -15 -11 0 -20 7 -20 15 0 10 -10 15 -30 15 -20 0 -30 -5 -30 -15 0 -8 -9
-15 -20 -15 -11 0 -20 7 -20 15 0 10 -11 15 -35 15 l-35 0 0 -205 0 -205 473
2 472 3 3 203 2 202 -35 0 c-24 0 -35 -5 -35 -15 0 -8 -9 -15 -20 -15 -11 0
-20 7 -20 15 0 10 -10 15 -30 15 -20 0 -30 -5 -30 -15 0 -8 -9 -15 -20 -15
-11 0 -20 7 -20 15 0 10 -10 15 -26 15 l-26 0 6 118 c3 64 8 134 12 155 l6 37
-37 0 c-28 0 -38 -5 -42 -20 -3 -11 -13 -20 -23 -20 -10 0 -20 9 -23 20 -8 30
-74 28 -87 -2 -6 -17 -9 0 -9 60 -1 76 1 82 19 82 11 0 20 -4 20 -10 0 -15 59
-12 116 5 26 8 59 12 71 9 27 -7 29 3 7 34 -14 20 -14 22 0 22 22 0 20 17 -3
30 -25 13 -70 13 -108 0 -23 -8 -36 -7 -59 5 -16 8 -37 15 -46 15 -10 0 -18 5
-18 10 0 6 -4 10 -10 10 -6 0 -10 -56 -11 -147z m71 67 c0 -25 -4 -30 -25 -30
-21 0 -25 5 -25 30 0 25 4 30 25 30 21 0 25 -5 25 -30z m146 13 c-4 -9 -2 -19
4 -23 7 -4 -11 -15 -39 -24 -71 -23 -83 -21 -79 11 2 20 12 29 38 39 53 19 84
18 76 -3z m-386 -223 c0 -17 7 -20 45 -20 38 0 45 3 45 20 0 13 7 20 19 20 10
0 21 -9 24 -20 4 -16 14 -20 45 -20 31 0 41 4 45 20 3 11 13 20 22 20 9 0 19
-9 22 -20 4 -16 14 -20 45 -20 31 0 41 4 45 20 3 11 12 20 20 20 11 0 13 -8 8
-32 -15 -74 4 -68 -211 -68 -147 0 -196 3 -199 13 -2 6 -6 29 -10 50 -5 33 -4
37 15 37 13 0 20 -7 20 -20z m370 -380 l0 -280 -39 0 c-41 0 -51 11 -51 55 0
39 -37 127 -71 168 l-31 38 -25 -23 c-36 -33 -69 -104 -83 -176 l-13 -62 -38
0 -39 0 0 280 0 280 195 0 195 0 0 -280z m-620 75 c0 -11 11 -15 40 -15 29 0
40 4 40 15 0 8 5 15 10 15 6 0 10 -7 10 -15 0 -11 11 -15 40 -15 29 0 40 4 40
15 0 8 7 15 15 15 13 0 15 -25 13 -182 l-3 -183 -117 -3 -118 -3 0 186 c0 158
2 185 15 185 8 0 15 -7 15 -15z m670 0 c0 -11 11 -15 40 -15 29 0 40 4 40 15
0 8 5 15 10 15 6 0 10 -7 10 -15 0 -11 11 -15 40 -15 29 0 40 4 40 15 0 8 7
15 15 15 13 0 15 -25 13 -182 l-3 -183 -117 -3 -118 -3 0 186 c0 158 2 185 15
185 8 0 15 -7 15 -15z m-260 -251 l0 -105 -37 3 c-38 3 -38 3 -35 43 5 53 51
165 68 165 2 0 4 -48 4 -106z m66 55 c14 -29 28 -76 31 -105 l6 -54 -37 0 -36
0 0 105 c0 58 2 105 5 105 2 0 16 -23 31 -51z"/>
<path d="M192 368 c-7 -7 -12 -29 -12 -50 0 -38 0 -38 40 -38 40 0 40 0 40 38
0 40 -14 62 -40 62 -9 0 -21 -5 -28 -12z m46 -41 c3 -22 -1 -27 -17 -27 -15 0
-21 6 -21 23 0 46 33 49 38 4z"/>
<path d="M862 368 c-7 -7 -12 -29 -12 -50 0 -38 0 -38 40 -38 40 0 40 0 40 38
0 40 -14 62 -40 62 -9 0 -21 -5 -28 -12z m46 -41 c3 -22 -1 -27 -17 -27 -15 0
-21 6 -21 23 0 46 33 49 38 4z"/>
</g>
</svg>
